<svg preserveAspectRatio="none" overflow="visible" style="display: block;" width="160" height="160" viewBox="0 0 160 160" fill="none" xmlns="http://www.w3.org/2000/svg">
<g id="Illustration">
<path id="Background" d="M159 1V159H1V1H159Z" fill="#F6D1E9" stroke="#191919" stroke-width="2" stroke-linecap="round"/>
<g id="Chair">
<path id="Vector" d="M27.8413 104.97C29.3984 106.091 30.7979 106.937 31.0147 110.173C31.2315 113.41 31.0147 120.649 32.6211 124.387C34.2275 128.125 36.7702 118.918 36.7702 118.918L35.5875 104.763L27.8413 104.97Z" fill="#9E908A" stroke="#191919" stroke-width="2" stroke-linecap="round" stroke-linejoin="round"/>
<path id="Vector_2" d="M24.1553 80.0936C24.1553 78.9427 21.041 51.676 21.041 51.676L25.535 45.3414L34.8679 43.3741L51.0108 45.4397L65.0743 53.4957L69.7949 69.4898L24.1553 80.0936Z" fill="#529DA9" stroke="#191919" stroke-width="2" stroke-linecap="round" stroke-linejoin="round"/>
<path id="Vector_3" d="M72 144V159H67V144.223L72 144Z" fill="#9E908A" stroke="#191919" stroke-width="2" stroke-linecap="round" stroke-linejoin="round"/>
<path id="Vector_4" d="M63.6352 145.87L94.492 144.227C94.492 144.227 96.2758 121.19 80.9509 119.725C65.626 118.259 51.0106 116.272 42.8801 117.049C34.7495 117.826 31.4677 123.266 31.2114 125.764C31.076 128.448 31.076 131.137 31.2114 133.82L43.3137 139.486L63.6352 145.87Z" fill="#529DA9" stroke="#191919" stroke-width="2" stroke-linecap="round" stroke-linejoin="round"/>
<path id="Vector_5" d="M24.303 87.4512C24.303 87.4512 11.2349 67.4143 17.4634 49.4431C21.9081 36.6556 36.8881 40.0492 45.4228 41.5739C53.9574 43.0985 63.2903 48.8824 69.7948 55.6105L64.7292 55.2072C64.7292 55.2072 58.816 49.6497 43.4024 46.5413C27.9888 43.433 24.5395 49.5906 23.5835 51.6956C21.0409 57.2828 22.0757 68.1618 27.1511 78.6869L24.303 87.4512Z" fill="#9E908A" stroke="#191919" stroke-width="2" stroke-linecap="round" stroke-linejoin="round"/>
</g>
<g id="Man">
<g id="Vector_6">
<path d="M61.3389 96.8024C70.7901 94.1171 107.747 83.3658 113.749 82.2542C116.706 81.7034 120.145 81.4083 122.471 83.3461C124.324 84.8904 124.935 87.4184 125.428 89.7693L136.268 139.414C132.918 141.489 129.123 142.168 125.349 143.349C118.342 145.454 114.37 139.581 105.362 141.244" fill="#BA9AF1"/>
<path d="M61.3389 96.8024C70.7901 94.1171 107.747 83.3658 113.749 82.2542C116.706 81.7034 120.145 81.4083 122.471 83.3461C124.324 84.8904 124.935 87.4184 125.428 89.7693L136.268 139.414C132.918 141.489 129.123 142.168 125.349 143.349C118.342 145.454 114.37 139.581 105.362 141.244" stroke="#191919" stroke-width="2" stroke-linecap="round" stroke-linejoin="round"/>
</g>
<path id="Vector_7" d="M158.827 146.467V158.723H145.226C143.482 156.756 143.176 153.254 142.447 150.549C141.03 145.328 138.672 140.408 135.489 136.03C134.396 134.503 133.201 133.05 131.912 131.682L131.774 131.545C131.508 131.24 131.212 130.945 130.916 130.659C129.243 128.96 127.43 127.404 125.496 126.007L132.326 121.502L133.213 120.921L139.757 116.603C143.285 128.712 149.651 139.463 158.827 146.467Z" fill="#FFE3D7" stroke="#191919" stroke-width="2" stroke-linecap="round" stroke-linejoin="round"/>
<path id="Vector_8" d="M129.773 139.306C129.714 140.289 129.635 141.175 129.566 142.119C129.113 147.667 128.443 153.392 127.802 158.703H113.867C113.798 154.08 113.798 148.955 114.035 143.408C114.035 142.876 114.035 142.345 114.104 141.804C114.156 140.768 114.215 139.725 114.281 138.676L118.627 138.853L120.066 138.912L129.773 139.306Z" fill="#FFE3D7" stroke="#191919" stroke-width="2" stroke-linecap="round" stroke-linejoin="round"/>
<path id="Vector_9" d="M64.147 110.229C79.9154 124.453 98.6403 108.763 114.054 97.1466C114.054 97.1466 117.011 102.34 118.725 105.134C123.121 112.501 120.135 125.249 127.004 134.25C133.094 130.876 134.789 121.177 141.718 114.449C136.126 106.391 131.511 97.701 127.97 88.5594C125.378 82.0378 119.691 80.7492 109.422 82.3427C98.256 84.0641 68.7395 87.2609 68.7395 87.2609L64.147 110.229Z" fill="#9FD2DA" stroke="#191919" stroke-width="2" stroke-linecap="round" stroke-linejoin="round"/>
<path id="Vector_10" d="M125.447 89.7693C124.935 87.4183 124.324 84.851 122.49 83.346C120.165 81.3787 116.745 81.7033 113.769 82.2542C107.767 83.3657 70.8095 94.117 61.3584 96.8024L40.6032 99.3697C38.3759 114.724 39.0264 121.816 58.8157 122.161C65.2906 122.279 82.7048 118.826 85.0996 124.492C87.9774 131.299 85.2011 131.873 88 140.5C89.9711 146.54 93.9102 149.791 95.8813 154.887C114.311 152.536 110.842 136.827 135.657 130.374C135.628 130.374 126.413 94.2153 125.447 89.7693Z" fill="#CDECF1" stroke="#191919" stroke-width="2" stroke-linecap="round" stroke-linejoin="round"/>
<path id="Vector_11" d="M114.251 86.5331C112.113 100.783 106.718 114.35 98.4828 126.184C98.4125 125.984 98.3974 125.769 98.439 125.561C98.4806 125.354 98.5774 125.161 98.7193 125.003" stroke="#191919" stroke-width="2" stroke-linecap="round" stroke-linejoin="round"/>
<path id="Vector_12" d="M110.635 82.8739C100.463 88.7113 90.595 95.0607 81.0688 101.898" stroke="#191919" stroke-width="2" stroke-linecap="round" stroke-linejoin="round"/>
<path id="Vector_13" d="M117.474 95.858C117.683 104.016 117.108 112.175 115.759 120.223" stroke="#191919" stroke-width="2" stroke-linecap="round" stroke-linejoin="round"/>
<path id="Vector_14" d="M134.356 130.787C127.398 132.955 120.221 136.457 115.5 142C118.338 142.984 121.978 144.352 125.348 143.349C129.123 142.207 132.917 141.529 136.268 139.414C135.608 136.532 134.947 133.66 134.356 130.787Z" fill="#9FD2DA" stroke="#191919" stroke-width="2" stroke-linecap="round" stroke-linejoin="round"/>
<path id="Vector_15" d="M83.9859 84.6347C83.9859 84.6347 76.2298 62.2763 74.7417 58.7155C73.7562 56.4138 68.5821 51.83 63.2997 49.7742C58.0173 47.7184 47.1371 46.6266 47.1371 46.6266C41.1353 49.5775 35.8726 52.5283 30.5507 57.722C25.2289 62.9157 22.7454 84.0936 22.9031 94.2547C22.9523 97.6679 23.7605 100.609 25.5837 102.124C27.7223 103.924 31.0632 105.891 34.207 104.386C38.4406 102.371 43.0676 101.313 47.758 101.288L83.9859 84.6347Z" fill="#CDECF1" stroke="#191919" stroke-width="2" stroke-linecap="round" stroke-linejoin="round"/>
<path id="Vector_16" d="M42.0518 72.644C40.3271 83.0608 38.7404 81.8804 37.272 87.1528C37.272 87.1528 46.5162 87.4774 50.4386 88.1364" stroke="#191919" stroke-width="2" stroke-linecap="round" stroke-linejoin="round"/>
<path id="Vector_17" d="M47.4719 97.4417C57.544 96.517 65.714 96.8811 74.3669 92.9957L75.106 86.2674C69.3815 87.2321 63.564 87.5292 57.7706 87.1528C55.6518 86.9954 50.4383 86.2674 50.4383 86.2674C48.1618 89.8676 44.5055 92.2775 47.4719 97.4417Z" fill="#FFE3D7" stroke="#191919" stroke-width="2" stroke-linecap="round" stroke-linejoin="round"/>
<path id="Vector_18" d="M72.4751 33.2685C74.2915 32.6981 75.8951 31.5977 77.079 30.1092C78.263 28.6207 78.973 26.8124 79.1176 24.9173C74.1013 27.042 73.0369 18.74 68.7499 16.1825C58.4117 10.0151 54.2134 18.8777 54.2134 18.8777C46.1025 14.4907 41.0172 30.6029 50.7246 37.7441L72.4751 33.2685Z" fill="#9E908A" stroke="#191919" stroke-width="2" stroke-linecap="round" stroke-linejoin="round"/>
<g id="Vector_19">
<path d="M55.2476 43.0165C57.8001 45.9674 61.4465 47.6396 64.344 46.9511C65.7729 46.5417 67.0906 45.8149 68.1982 44.8252C69.3059 43.8354 70.1748 42.6085 70.74 41.2361C71.8237 38.7017 72.4124 35.9841 72.4746 33.2292C71.489 34.0653 68.7493 33.2292 68.4142 29.8356C68.3058 28.7732 67.0246 21.4156 58.0563 22.5075C58.4962 23.7916 58.6689 25.1519 58.5639 26.505C58.4588 27.858 58.0782 29.1755 57.4453 30.3766C56.8441 31.316 55.995 32.0715 54.9913 32.5603C54.9913 32.5603 53.5229 28.252 50.5466 30.0127C48.7234 31.0849 49.2162 33.6128 49.7286 34.3997C52.2614 38.413 48.2504 44.5805 45.688 49.0364C45.688 49.0364 47.8956 60.8401 54.2424 61.3024C56.2824 61.4697 60.6384 67.3323 60.8158 66.2896C60.8158 66.2896 60.9735 49.7447 61.8013 47.6003" fill="#FFE3D7"/>
<path d="M55.2476 43.0165C57.8001 45.9674 61.4465 47.6396 64.344 46.9511C65.7729 46.5417 67.0906 45.8149 68.1982 44.8252C69.3059 43.8354 70.1748 42.6085 70.74 41.2361C71.8237 38.7017 72.4124 35.9841 72.4746 33.2292C71.489 34.0653 68.7493 33.2292 68.4142 29.8356C68.3058 28.7732 67.0246 21.4156 58.0563 22.5075C58.4962 23.7916 58.6689 25.1519 58.5639 26.505C58.4588 27.858 58.0782 29.1755 57.4453 30.3766C56.8441 31.316 55.995 32.0715 54.9913 32.5603C54.9913 32.5603 53.5229 28.252 50.5466 30.0127C48.7234 31.0849 49.2162 33.6128 49.7286 34.3997C52.2614 38.413 48.2504 44.5805 45.688 49.0364C45.688 49.0364 47.8956 60.8401 54.2424 61.3024C56.2824 61.4697 60.6384 67.3323 60.8158 66.2896C60.8158 66.2896 60.9735 49.7447 61.8013 47.6003" stroke="#191919" stroke-width="2" stroke-linecap="round" stroke-linejoin="round"/>
</g>
<path id="Vector_20" d="M61.3977 49.1446C61.3977 49.1446 66.2071 50.4234 68.7202 52.2234C66.3363 58.1231 65.044 64.4053 64.9062 70.7652C64.9062 71.7488 57.771 69.0242 57.771 69.0242L61.3977 49.1446Z" fill="#9FD2DA" stroke="#191919" stroke-width="2" stroke-linecap="round" stroke-linejoin="round"/>
<path id="Vector_21" d="M62.0185 63.3779C68.1583 69.2798 72.6129 77.4048 73.2042 85.9133C62.462 67.9027 44.7028 66.0535 38.3462 51.2988C42.6924 46.6265 44.1805 45.4855 47.1272 46.6265C47.1371 46.5872 50.0838 51.8693 62.0185 63.3779Z" fill="#9FD2DA" stroke="#191919" stroke-width="2" stroke-linecap="round" stroke-linejoin="round"/>
<path id="Vector_22" d="M113.749 82.2542C115.612 81.8411 117.533 81.7546 119.426 81.9985C123.309 71.3161 129.833 54.1711 129.833 54.1711C117.602 55.5088 101.992 56.5122 83.9861 58.4205L70.6421 94.1366C85.2279 89.9463 109.038 83.1297 113.749 82.2542Z" fill="#9693AD" stroke="#191919" stroke-width="2" stroke-linecap="round" stroke-linejoin="round"/>
<path id="Vector_23" d="M63.9895 33.9473C63.8666 34.1917 63.7835 34.4539 63.7432 34.7243C63.8528 34.4748 63.9354 34.2144 63.9895 33.9473Z" fill="white" stroke="#191919" stroke-width="2" stroke-linecap="round" stroke-linejoin="round"/>
<path id="Vector_24" d="M60.6587 39.8788C60.6898 40.59 60.9624 41.2696 61.4316 41.8058C61.9008 42.3421 62.5388 42.7032 63.2408 42.8297" stroke="#191919" stroke-width="2" stroke-linecap="round" stroke-linejoin="round"/>
<g id="Vector_25">
<path d="M67.4092 41.7968C69.0057 43.0952 72.0411 44.8658 72.9281 42.9379C73.9136 40.7148 69.0649 39.259 68.7199 37.036" fill="#FFE3D7"/>
<path d="M67.4092 41.7968C69.0057 43.0952 72.0411 44.8658 72.9281 42.9379C73.9136 40.7148 69.0649 39.259 68.7199 37.036" stroke="#191919" stroke-width="2" stroke-linecap="round" stroke-linejoin="round"/>
</g>
<g id="Vector_26">
<path d="M29.437 59.1182C25.0514 66.3283 17.8472 86.3062 20.6166 91.854C24.1644 98.9657 37.3705 95.0311 47.4721 94.1163C47.4721 94.1163 48.6449 88.8539 50.9313 86.3357C50.9313 86.3357 41.825 85.0766 36.4047 83.8766" fill="#CDECF1"/>
<path d="M29.437 59.1182C25.0514 66.3283 17.8472 86.3062 20.6166 91.854C24.1644 98.9657 37.3705 95.0311 47.4721 94.1163C47.4721 94.1163 48.6449 88.8539 50.9313 86.3357C50.9313 86.3357 41.825 85.0766 36.4047 83.8766" stroke="#191919" stroke-width="2" stroke-linecap="round" stroke-linejoin="round"/>
</g>
</g>
<g id="Chair_2">
<path id="Vector_27" d="M21.0126 94.1274C21.0126 94.1274 24.6393 96.3112 30.9861 96.3112C37.3329 96.3112 42.0437 94.1865 47.1191 94.1274C47.1191 94.1274 44.8721 95.1111 44.9904 96.7144C45.1087 98.3178 44.9904 100.393 44.9904 101.485C44.9904 102.577 44.7736 104.161 41.1863 105.066C38.1509 105.833 30.6806 107.102 26.3147 104.682C22.5303 102.587 20.8352 99.6457 21.0126 94.1274Z" fill="#529DA9" stroke="#191919" stroke-width="2" stroke-linecap="round" stroke-linejoin="round"/>
<path id="Vector_28" d="M88.5397 142.238C84.0457 141.539 78.172 140.792 75.2351 140.27C72.9987 139.952 70.7177 140.274 68.6574 141.199C66.5971 142.124 64.8419 143.613 63.5961 145.494C63.1742 146.116 62.8081 146.774 62.5021 147.461C61.2406 150.343 60.876 154.612 60.9253 158.694H53.6817C53.1593 152.291 52.1344 144.923 52.1344 144.923L51.9866 144.48C47.1772 143.861 36.2182 140.005 36.2182 140.005C36.1841 142.983 35.627 145.933 34.5723 148.72C33.5436 152.013 32.6915 155.359 32.0198 158.743H27.0922C27.8819 154.884 28.9088 151.076 30.167 147.343C31.5763 143.408 31.0639 136.129 30.8963 134.103C30.8963 133.759 30.8372 133.562 30.8372 133.562C32.6013 134.89 37.3712 135.952 41.678 136.7C45.9847 137.447 49.8775 137.851 49.8775 137.851C50.5469 137.191 51.0632 136.393 51.3901 135.513C51.717 134.632 51.8466 133.691 51.7698 132.755C51.5332 129.804 49.0596 126.981 48.281 121.05C48.2317 120.597 48.1824 120.135 48.143 119.643C48.074 118.66 47.9952 117.676 47.9262 116.692C47.4926 110.791 47.1181 105.203 46.6746 104.318C46.1523 103.275 45.6891 102.213 44.6148 103.216C44.2108 103.59 43.6786 102.823 43.1661 101.692C42.7954 100.876 42.4665 100.042 42.1806 99.1933C41.7075 97.7768 41.3725 96.5375 41.3725 96.5375L46.0734 94.5702L47.1181 94.1472C48.3862 93.8672 49.7102 93.9887 50.906 94.4947C52.1018 95.0006 53.1099 95.8659 53.7901 96.9702C53.9316 97.1988 54.0599 97.4354 54.1744 97.6785C54.2516 97.8289 54.3207 97.9832 54.3814 98.1408C54.5547 98.5801 54.6867 99.0345 54.7756 99.4983C55.3571 102.449 53.4353 104.338 53.5733 108.469C53.5733 109.777 53.7704 113.574 54.1843 116.997C54.3426 118.722 54.6896 120.424 55.2191 122.073C55.2148 122.092 55.2148 122.113 55.2191 122.132C56.382 125.014 59.2696 128.89 60.403 131.555C61.3744 133.818 61.903 136.245 61.9601 138.706C61.9601 138.706 66.1091 133.316 74.6142 134.132C79.3053 134.575 82.9313 134.969 86.5581 135.5C86.5581 135.5 86.8008 135.762 86.7956 135.733C86.7639 135.555 86.7891 135.571 86.7956 135.602C86.9023 136.098 87.1504 137.268 87.1504 137.268C87.1836 137.523 87.2782 137.792 87.3275 138.037C87.4261 138.539 87.5443 139.021 87.6724 139.602C87.8006 140.182 87.9287 140.585 88.0765 141.136C88.3327 141.48 88.4214 141.854 88.5397 142.238Z" fill="#9E908A" stroke="#191919" stroke-width="2" stroke-linecap="round" stroke-linejoin="round"/>
</g>
</g>
</svg>
