<svg preserveAspectRatio="none" overflow="visible" style="display: block;" width="24" height="24" viewBox="0 0 24 24" fill="none" xmlns="http://www.w3.org/2000/svg">
<g id="Content">
<circle id="Fill" cx="12" cy="12" r="12" fill="#7AC6B2"/>
<g id="Filled/Checkmark Circle">
<path id="Icon" d="M12 6.16699C15.2217 6.16699 17.833 8.77834 17.833 12C17.833 15.2217 15.2217 17.833 12 17.833C8.77834 17.833 6.16699 15.2217 6.16699 12C6.16699 8.77834 8.77834 6.16699 12 6.16699ZM14.7461 9.83789C14.5183 9.61008 14.2698 9.61008 14.042 9.83789L10.833 12.9248L10.0791 12.1709C9.8513 11.9431 9.48171 11.9431 9.25391 12.1709C9.02626 12.3987 9.02616 12.7683 9.25391 12.9961L10.4209 14.1621C10.6487 14.3899 11.0183 14.3899 11.2461 14.1621L14.7461 10.6621C14.9735 10.4344 14.9735 10.0656 14.7461 9.83789Z" fill="white"/>
</g>
</g>
</svg>
